<mxfile host="app.diagrams.net" modified="2023-08-09T00:48:35.169Z" agent="Mozilla/5.0 (Macintosh; Intel Mac OS X 10_15_7) AppleWebKit/537.36 (KHTML, like Gecko) Chrome/115.0.0.0 Safari/537.36" version="21.6.5" etag="TFP3j4SFm3v4yM12n1Pb" type="github">
  <diagram name="Page-1" id="3Z2MyzScv3yw4Aw4HepM">
    <mxGraphModel>
      <root>
        <mxCell id="0" />
        <mxCell id="1" parent="0" />
      </root>
    </mxGraphModel>
  </diagram>
</mxfile>
